<?xml version="1.0" encoding="iso-8859-1"?>
<!-- Generator: Adobe Illustrator 16.0.0, SVG Export Plug-In . SVG Version: 6.00 Build 0)  -->
<!DOCTYPE svg PUBLIC "-//W3C//DTD SVG 1.1//EN" "http://www.w3.org/Graphics/SVG/1.1/DTD/svg11.dtd">
<svg xmlns="http://www.w3.org/2000/svg" xmlns:xlink="http://www.w3.org/1999/xlink" version="1.1" id="Capa_1" x="0px" y="0px" width="512px" height="512px" viewBox="0 0 612 612" style="enable-background:new 0 0 612 612;" xml:space="preserve">
<g>
	<g>
		<path d="M552.356,322.843c-0.554-0.335-1.123-0.64-1.69-0.924C534.148,193.172,430.862,95.317,308.791,93.26    c-0.21-0.036-0.423-0.062-0.642-0.075c-0.679-0.079-1.323-0.062-1.903-0.03h-0.485c-0.635-0.033-1.245-0.052-1.92,0.03    c-0.206,0.016-0.409,0.039-0.612,0.072C181.164,95.304,77.877,193.162,61.354,321.916c-0.567,0.285-1.137,0.593-1.69,0.931    C22.854,340.996,0,374.237,0,409.673C0,465.474,55.05,510.87,122.713,510.87c1.271,0,2.191,0.026,3.004,0.05    c1.759,0.049,3.112,0.088,5.818-0.099c4.648-0.331,8.465-0.648,11.649-1.373c5.681,9.229,16.429,9.344,24.04,9.426h2.595    c17.569-0.227,27.764-4.773,27.869-27.325c0.043-8.449-0.085-49.757-0.203-82.896l0.017-27.339    c0.017-27.731,0.033-49.635-0.017-55.581c-0.216-22.302-10.162-26.977-27.295-27.239c-0.39-0.042-0.783-0.052-1.176-0.023    c-0.298,0.023-0.563,0.02-0.822,0.017h-1.294c-8.151,0.098-19.807,0.236-25.068,11.547c-2.866-0.665-6.28-1.098-10.372-1.33    l-1.117-0.069c-2.303-0.137-2.847-0.163-3.689-0.163l-3.941,0.022c-3.843,0-7.807,0.181-11.977,0.547    c20.934-96.756,101.783-166.477,195.241-167.047c93.518,0.57,174.356,70.291,195.284,167.047    c-4.161-0.363-8.125-0.543-11.978-0.543l-3.932-0.023c-0.838,0-1.372,0.026-3.649,0.16l-1.12,0.069    c-4.76,0.271-8.629,0.812-11.797,1.684c-5.059-11.426-16.403-11.816-24.655-11.895c-0.387-0.042-0.776-0.052-1.17-0.023    c-0.278,0.023-0.527,0.02-0.75,0.017h-1.33c-14.604,0.173-27.731,2.391-27.915,27.325c-0.02,8.164,0.075,45.354,0.232,82.873    c-0.062,40.482-0.071,75.358-0.029,82.959c0.252,24.875,13.376,27.076,28.05,27.23h2.492c0.03,0,0.057,0,0.086,0    c7.64-0.099,18.44-0.239,24.062-9.664c3.609,0.97,7.879,1.274,12.646,1.611c2.695,0.187,4.052,0.147,5.805,0.099    c0.806-0.023,1.713-0.05,2.975-0.05c67.666,0,122.72-45.396,122.72-101.196C612,374.224,589.156,340.975,552.356,322.843z     M489.283,497.766c-1.422,0-2.447,0.029-3.354,0.056c-1.372,0.042-2.424,0.072-4.511-0.072    c-3.364-0.239-10.362-0.733-11.509-1.707c-1.468-2.234-4.15-3.357-6.759-2.83c-2.62,0.524-4.658,2.585-5.156,5.209    c-1.081,5.723-2.634,7.197-14.322,7.352h-2.379c-12.036-0.128-14.88-0.679-15.018-14.231c-0.042-7.545-0.032-42.385,0.03-82.873    c-0.157-37.534-0.256-74.681-0.233-82.792c0.099-13.593,2.942-14.143,14.89-14.287h1.252c0.265,0,0.554,0,0.861-0.01    c0.099,0.004,0.2,0.007,0.298,0.01c12.406,0.105,13.772,1.707,14.674,9.114c0.311,2.545,2.077,4.675,4.521,5.454    c2.451,0.776,5.117,0.056,6.837-1.844c0.413-0.459,2.497-1.989,11.941-2.526l1.15-0.068c1.782-0.108,2.201-0.138,2.859-0.138    l0.754,0.003c0.648,0.007,1.585,0.017,3.178,0.017c5.936,0,12.223,0.479,19.22,1.458c2.074,0.295,4.164-0.43,5.625-1.937    c1.455-1.507,2.104-3.623,1.74-5.687C496.917,207.97,408.681,129.519,305.98,128.893    c-102.638,0.625-190.887,79.08-209.842,186.543c-0.364,2.063,0.282,4.177,1.74,5.687c1.455,1.507,3.541,2.225,5.622,1.939    c7.021-0.982,13.307-1.461,19.224-1.461c1.595,0,2.532-0.01,3.184-0.017l0.757-0.003c0.665,0,1.091,0.032,2.906,0.141l1.14,0.069    c7.905,0.448,10.664,1.628,11.604,2.289c1.854,1.308,4.249,1.563,6.33,0.676c2.083-0.885,3.564-2.781,3.915-5.016    c1.019-6.477,2.477-8.004,14.431-8.145h1.215c0.301,0,0.603,0,0.917-0.01c0.098,0.003,0.2,0.007,0.301,0.01    c12.003,0.104,14.84,0.646,14.975,14.264c0.052,5.877,0.036,27.755,0.016,55.45l-0.016,27.368    c0.115,33.143,0.242,74.411,0.203,82.814c-0.065,13.575-2.906,14.129-14.85,14.283h-2.441    c-11.745-0.125-13.094-1.704-14.218-6.542c-0.534-2.31-2.271-4.147-4.544-4.812c-2.273-0.669-4.724-0.056-6.417,1.604    c-1.157,0.993-8.147,1.491-11.496,1.727c-2.106,0.145-3.148,0.111-4.524,0.072c-0.917-0.026-1.952-0.056-3.384-0.056    c-60.453-0.003-109.623-39.521-109.623-88.096c0-30.955,19.672-59.066,52.623-75.2c0.22-0.108,0.436-0.229,0.643-0.361    c0.652-0.416,1.726-0.9,2.765-1.369l1.032-0.468c2.077-0.957,3.502-2.929,3.764-5.199    c14.31-124.374,113.383-219.267,230.461-220.725c0.341-0.003,0.671-0.036,0.996-0.092c0.393,0.013,0.714,0.023,1.228,0    c0.328,0.056,0.666,0.085,1.007,0.089c117.088,1.461,216.171,96.354,230.474,220.724c0.263,2.268,1.685,4.236,3.755,5.196    l1.094,0.498c1.029,0.465,2.094,0.946,2.762,1.366c0.197,0.124,0.4,0.235,0.606,0.337c32.928,16.125,52.583,44.236,52.583,75.201    C598.896,458.248,549.723,497.766,489.283,497.766z" fill="#66d37e"/>
		<path d="M69.609,353.762c-1.196,0.75-29.343,18.729-32.796,47.512c-2.034,16.97,4.865,33.73,20.508,49.822    c1.284,1.319,2.991,1.984,4.698,1.984c1.645,0,3.292-0.615,4.566-1.854c2.595-2.522,2.654-6.67,0.131-9.265    c-12.728-13.091-18.415-26.234-16.901-39.061c2.654-22.479,26.405-37.812,26.769-38.044c3.06-1.927,3.98-5.966,2.058-9.029    C76.718,352.762,72.675,351.838,69.609,353.762z" fill="#66d37e"/>
		<path d="M449.276,337.529c-3.616,0-6.552,2.936-6.552,6.553v124.594c0,3.616,2.936,6.552,6.552,6.552    c3.617,0,6.553-2.936,6.553-6.552V344.082C455.829,340.464,452.894,337.529,449.276,337.529z" fill="#66d37e"/>
	</g>
</g>
<g>
</g>
<g>
</g>
<g>
</g>
<g>
</g>
<g>
</g>
<g>
</g>
<g>
</g>
<g>
</g>
<g>
</g>
<g>
</g>
<g>
</g>
<g>
</g>
<g>
</g>
<g>
</g>
<g>
</g>
</svg>
